<?xml version="1.0" standalone="no"?>
<!DOCTYPE svg PUBLIC "-//W3C//DTD SVG 20010904//EN"
 "http://www.w3.org/TR/2001/REC-SVG-20010904/DTD/svg10.dtd">
<svg version="1.0" xmlns="http://www.w3.org/2000/svg"
 width="981.000000pt" height="982.000000pt" viewBox="0 0 981.000000 982.000000"
 preserveAspectRatio="xMidYMid meet">
<metadata>
Created by potrace 1.15, written by Peter Selinger 2001-2017
</metadata>
<g transform="translate(0.000000,982.000000) scale(0.100000,-0.100000)"
fill="#000000" stroke="none">
<path d="M1044 9717 c-130 -128 -132 -139 -48 -227 69 -72 101 -87 140 -67 39
20 199 186 208 215 10 30 -21 78 -86 137 -77 69 -89 66 -214 -58z"/>
<path d="M1474 9621 c-44 -32 -163 -153 -188 -191 -20 -30 -21 -82 -2 -118 8
-15 41 -53 74 -84 54 -51 65 -58 102 -58 58 0 83 16 188 123 127 127 136 175
52 270 -82 93 -154 111 -226 58z"/>
<path d="M2005 9521 c-16 -10 -90 -79 -163 -153 -118 -119 -134 -139 -139
-175 -8 -60 16 -100 121 -201 151 -146 167 -144 367 57 200 200 202 211 46
369 -51 51 -104 100 -119 108 -37 19 -77 18 -113 -5z"/>
<path d="M733 9407 c-131 -132 -132 -136 -29 -235 41 -40 79 -72 85 -72 27 0
71 34 152 117 48 48 90 98 94 110 9 32 -16 73 -80 132 -85 77 -95 74 -222 -52z"/>
<path d="M1125 9265 c-17 -9 -70 -55 -119 -104 -135 -136 -142 -189 -40 -292
108 -110 149 -105 287 30 106 103 127 133 127 181 0 42 -20 77 -77 132 -70 68
-118 82 -178 53z"/>
<path d="M2540 9249 c-30 -12 -316 -293 -336 -331 -18 -35 -18 -111 0 -146 8
-15 63 -75 123 -133 122 -121 158 -139 236 -118 34 9 68 37 190 157 82 81 156
160 164 176 20 38 20 114 0 152 -21 40 -217 231 -251 244 -34 12 -92 12 -126
-1z"/>
<path d="M423 9097 c-130 -131 -130 -135 -35 -230 95 -95 107 -94 224 21 49
48 97 100 105 116 20 39 5 71 -67 140 -87 83 -98 81 -227 -47z"/>
<path d="M1525 9042 c-16 -11 -91 -81 -165 -156 l-135 -136 0 -55 0 -55 105
-105 c166 -167 181 -166 377 28 204 201 206 220 39 386 -95 94 -107 104 -147
108 -32 3 -52 -1 -74 -15z"/>
<path d="M3145 8924 c-44 -22 -375 -353 -391 -391 -19 -45 -17 -97 5 -141 24
-46 247 -267 285 -281 51 -20 109 -13 157 18 59 38 355 339 368 374 14 36 14
98 0 134 -13 36 -243 268 -285 288 -41 19 -101 19 -139 -1z"/>
<path d="M771 8903 c-35 -7 -228 -198 -242 -240 -19 -60 -4 -100 65 -169 66
-66 107 -83 163 -69 38 9 230 200 244 242 6 18 7 48 4 65 -10 45 -117 155
-164 168 -20 5 -38 9 -41 9 -3 -1 -16 -4 -29 -6z"/>
<path d="M113 8787 c-129 -129 -129 -132 -36 -228 95 -99 100 -98 237 41 129
130 129 132 32 228 -93 91 -103 89 -233 -41z"/>
<path d="M7805 8729 c-156 -12 -354 -36 -540 -65 -804 -128 -1425 -391 -1758
-743 -402 -427 -430 -991 -83 -1675 62 -121 176 -319 182 -314 1 2 -4 30 -12
63 -22 90 -29 284 -15 405 97 826 860 1611 2151 2214 102 48 203 95 225 106
l40 19 -40 -1 c-22 0 -89 -5 -150 -9z"/>
<path d="M1985 8699 c-31 -17 -315 -301 -331 -331 -18 -35 -18 -111 0 -146 8
-15 63 -75 123 -133 84 -83 117 -109 149 -118 23 -6 48 -9 55 -7 8 2 27 7 43
11 33 7 317 280 343 329 20 38 20 114 0 152 -22 41 -217 231 -250 243 -36 14
-106 13 -132 0z"/>
<path d="M1055 8570 c-11 -4 -85 -74 -165 -154 l-145 -146 0 -55 0 -55 105
-105 c167 -168 187 -166 392 43 150 152 164 182 129 255 -24 50 -176 202 -217
217 -30 12 -72 12 -99 0z"/>
<path d="M3795 8536 c-16 -8 -128 -112 -247 -232 -233 -236 -239 -245 -223
-331 6 -32 33 -65 163 -196 87 -87 169 -165 184 -173 36 -19 101 -18 141 2 45
23 424 401 448 446 21 41 24 92 9 135 -14 37 -306 331 -347 349 -40 17 -89 17
-128 0z"/>
<path d="M375 8518 c-31 -17 -195 -180 -211 -210 -8 -15 -14 -46 -14 -69 0
-39 5 -48 73 -116 68 -68 77 -73 116 -73 58 0 73 9 174 109 101 98 117 123
117 182 0 39 -5 48 -73 116 -69 69 -76 73 -118 73 -24 0 -53 -6 -64 -12z"/>
<path d="M2540 8298 c-42 -12 -371 -332 -401 -390 -22 -44 -24 -96 -5 -141 7
-18 74 -91 147 -163 118 -116 139 -133 176 -139 79 -13 104 3 296 194 98 97
185 188 193 203 18 35 18 111 0 146 -8 15 -72 84 -143 155 -149 147 -174 161
-263 135z"/>
<path d="M1425 8141 c-16 -10 -97 -86 -179 -169 -147 -148 -149 -151 -154
-200 -2 -28 -1 -63 3 -79 7 -31 204 -236 247 -259 32 -16 105 -18 144 -4 36
14 309 284 328 325 20 41 21 117 2 153 -20 39 -217 229 -250 242 -43 16 -108
12 -141 -9z"/>
<path d="M560 8084 c-37 -25 -238 -223 -271 -268 -32 -44 -38 -91 -15 -134 8
-15 57 -69 109 -120 151 -150 166 -148 364 50 202 202 204 216 59 366 -50 52
-103 100 -118 108 -36 19 -98 18 -128 -2z"/>
<path d="M4460 8039 c-25 -8 -93 -68 -247 -222 -117 -115 -219 -225 -228 -243
-17 -37 -19 -91 -5 -131 13 -32 301 -327 342 -349 35 -18 111 -18 146 0 41 22
450 437 462 469 14 39 13 81 -5 123 -16 39 -269 303 -320 334 -39 24 -100 32
-145 19z"/>
<path d="M3110 7849 c-30 -12 -445 -423 -466 -461 -24 -45 -18 -108 15 -159
38 -58 289 -305 324 -318 52 -20 110 -13 158 18 67 43 415 399 434 443 18 44
19 86 4 125 -15 41 -296 322 -344 344 -44 20 -86 23 -125 8z"/>
<path d="M1905 7659 c-31 -17 -375 -361 -391 -391 -17 -32 -18 -95 -3 -134 14
-38 235 -261 281 -285 41 -21 92 -24 135 -9 37 14 381 356 399 397 19 45 17
97 -5 141 -24 46 -247 267 -285 281 -35 14 -105 14 -131 0z"/>
<path d="M859 7581 c-60 -40 -295 -280 -308 -314 -15 -40 -14 -113 3 -145 17
-32 211 -225 243 -241 42 -21 115 -13 164 18 58 38 295 279 308 314 14 37 14
112 0 140 -16 32 -209 226 -241 243 -47 24 -118 18 -169 -15z"/>
<path d="M6358 7488 c-444 -370 -688 -888 -664 -1413 3 -77 12 -169 19 -205
l13 -65 280 -280 c587 -587 1019 -1109 1434 -1732 384 -575 674 -1120 893
-1678 77 -196 77 -200 10 -109 -434 583 -1289 1201 -2400 1735 -627 301 -1379
510 -2063 575 -215 20 -651 15 -829 -11 -574 -81 -1028 -293 -1386 -649 -210
-209 -398 -495 -524 -800 l-41 -99 42 39 c231 211 575 420 843 514 726 253
1400 67 2000 -551 144 -148 224 -245 380 -459 258 -354 413 -537 661 -780 354
-348 690 -593 1083 -789 500 -251 1081 -394 1536 -379 l126 4 799 799 799 800
12 85 c17 120 14 411 -5 563 -45 358 -151 695 -326 1042 -191 379 -429 708
-755 1044 -200 206 -346 337 -624 559 -292 233 -443 365 -611 532 -389 388
-620 746 -708 1099 -22 89 -26 129 -26 246 -1 156 18 247 74 358 17 31 28 57
25 57 -2 0 -32 -24 -67 -52z"/>
<path d="M4843 7268 c-125 -125 -211 -218 -223 -243 -24 -50 -26 -131 -5 -182
9 -22 73 -96 153 -176 150 -152 202 -187 282 -187 71 0 75 6 51 86 -42 144
-52 218 -58 414 -4 146 -1 230 11 334 19 165 19 156 5 156 -7 0 -104 -91 -216
-202z"/>
<path d="M3705 7291 c-49 -23 -449 -423 -464 -464 -14 -36 -14 -88 -1 -124 13
-32 301 -327 342 -349 35 -18 111 -18 146 0 41 22 450 437 462 469 32 87 3
140 -173 314 -178 177 -219 197 -312 154z"/>
<path d="M2410 7154 c-43 -19 -433 -405 -455 -450 -18 -37 -20 -101 -4 -141
14 -37 284 -310 331 -334 44 -22 96 -24 141 -5 18 8 130 112 249 232 186 189
217 224 224 257 14 77 -6 110 -165 271 -182 185 -229 210 -321 170z"/>
<path d="M1285 7021 c-49 -23 -379 -353 -395 -394 -14 -39 -13 -92 4 -130 7
-18 72 -89 142 -158 145 -142 172 -157 253 -137 40 10 67 32 219 182 179 176
212 220 212 280 0 61 -18 88 -148 220 -160 161 -197 179 -287 137z"/>
<path d="M4342 6729 c-24 -4 -64 -24 -90 -43 -80 -59 -390 -379 -408 -421 -21
-50 -21 -130 0 -179 20 -49 262 -296 326 -334 55 -33 145 -37 200 -8 48 25
416 392 443 441 29 55 29 145 0 200 -32 60 -300 320 -343 333 -60 17 -83 20
-128 11z"/>
<path d="M2970 6554 c-39 -16 -442 -412 -466 -456 -17 -32 -19 -110 -3 -141
16 -31 309 -326 341 -343 34 -18 99 -18 141 0 41 18 452 431 466 469 33 88 4
141 -173 315 -175 173 -217 194 -306 156z"/>
<path d="M1720 6464 c-36 -16 -390 -359 -441 -428 -24 -32 -29 -49 -29 -93 0
-30 6 -66 14 -81 21 -40 307 -319 339 -331 39 -15 91 -14 130 3 18 8 127 110
244 227 234 238 246 255 223 339 -10 37 -36 69 -158 193 -183 186 -230 211
-322 171z"/>
<path d="M4979 6156 c-25 -6 -58 -22 -75 -33 -65 -48 -443 -439 -458 -475 -22
-52 -20 -140 3 -186 28 -53 337 -358 383 -377 48 -19 118 -19 166 0 50 21 477
445 503 500 24 51 24 129 0 180 -12 25 -86 106 -192 212 -152 150 -179 172
-214 178 -22 4 -47 8 -55 10 -8 2 -36 -2 -61 -9z"/>
<path d="M3545 5968 c-33 -9 -78 -49 -247 -216 -114 -113 -215 -221 -225 -241
-25 -51 -23 -145 4 -196 12 -22 86 -104 165 -181 153 -151 180 -168 269 -166
25 0 60 7 77 14 43 18 434 406 456 452 9 20 18 58 18 84 2 90 -14 116 -166
270 -77 79 -158 153 -179 163 -47 25 -119 32 -172 17z"/>
<path d="M2225 5814 c-37 -19 -441 -419 -461 -456 -17 -32 -19 -110 -3 -141
16 -31 309 -326 341 -343 32 -17 95 -18 135 -3 41 15 441 415 464 464 23 49
24 84 4 131 -20 49 -287 318 -340 344 -49 24 -99 26 -140 4z"/>
<path d="M5605 5481 c-55 -26 -479 -453 -500 -503 -21 -51 -19 -124 5 -177 25
-55 318 -350 372 -374 45 -21 137 -22 186 -1 50 20 465 434 492 490 24 49 26
130 5 182 -21 50 -326 358 -380 383 -51 24 -129 24 -180 0z"/>
<path d="M4160 5357 c-47 -14 -484 -444 -511 -502 -27 -57 -24 -130 6 -191 14
-27 61 -85 108 -132 l83 -83 144 -15 c80 -8 188 -21 240 -29 l95 -14 178 177
c105 104 186 194 197 218 26 52 26 135 1 189 -11 25 -82 103 -187 206 -135
131 -177 168 -210 177 -49 14 -96 14 -144 -1z"/>
<path d="M2744 5195 c-34 -17 -106 -82 -236 -212 -197 -198 -227 -241 -228
-318 0 -78 18 -113 100 -198 l77 -81 159 22 c88 12 224 27 304 33 l145 12 93
91 c106 104 132 149 132 226 0 84 -25 122 -188 282 -115 114 -156 148 -187
157 -63 17 -117 13 -171 -14z"/>
<path d="M6295 4771 c-59 -15 -93 -43 -287 -238 -209 -210 -228 -237 -228
-320 1 -79 27 -117 191 -279 143 -140 158 -152 207 -164 41 -9 63 -9 105 0 49
12 63 24 261 219 223 220 246 251 246 336 0 84 -28 126 -184 281 -127 127
-148 144 -196 158 -58 17 -69 18 -115 7z"/>
<path d="M4839 4696 c-55 -15 -104 -54 -258 -210 -76 -76 -110 -117 -100 -120
8 -2 88 -21 179 -41 188 -42 412 -105 580 -164 105 -36 116 -38 128 -24 17 23
15 126 -3 171 -19 45 -313 345 -365 372 -50 25 -107 31 -161 16z"/>
<path d="M3345 4551 c-22 -10 -56 -35 -74 -55 l-35 -36 204 0 204 0 -34 35
c-71 73 -179 96 -265 56z"/>
<path d="M6880 4114 c-60 -26 -470 -442 -470 -478 0 -2 78 -46 173 -97 94 -51
233 -128 307 -171 l134 -79 158 158 c114 114 163 170 174 200 l16 41 -83 124
c-46 67 -117 158 -159 202 -105 110 -168 135 -250 100z"/>
<path d="M7379 3273 l-138 -136 102 -76 c121 -89 399 -298 433 -326 l25 -19
54 55 55 54 -76 130 c-165 283 -277 455 -298 455 -12 0 -74 -54 -157 -137z"/>
<path d="M8667 1132 l-757 -757 190 -190 190 -190 762 763 763 762 -185 185
c-102 102 -189 185 -195 185 -5 0 -351 -341 -768 -758z"/>
</g>
</svg>
